<svg version="1.0" xmlns="http://www.w3.org/2000/svg" width="800.000000" height="800.000000" viewBox="0 0 800.000000 800.000000" preserveAspectRatio="xMidYMid meet">
  <metadata>
    <rdf:RDF xmlns:rdf="http://www.w3.org/1999/02/22-rdf-syntax-ns#" xmlns:rdfs="http://www.w3.org/2000/01/rdf-schema#" xmlns:dc="http://purl.org/dc/elements/1.1/">
      <rdf:Description dc:format="image/svg+xml" dc:Label="1" dc:ContentProducer="001191330110MACRLGPT8B00000" dc:ProduceID="456318296" dc:ReservedCode1="sTBzwh+uLa+mNnNQy0DcXVjVLZNTsUJIYKWsYDB6s3E=" dc:ContentPropagator="001191330110MACRLGPT8B00000" dc:PropagateID="456318296" dc:ReservedCode2="sTBzwh+uLa+mNnNQy0DcXVjVLZNTsUJIYKWsYDB6s3E="/>
    </rdf:RDF>
  </metadata>
  <g transform="translate(0.000000,800.000000) scale(0.100000,-0.100000)" fill="#000000" stroke="none">
    <path d="M2809 7083 c-10 -12 -15 -59 -17 -174 l-3 -157 -57 -23 c-117 -46 -339 -164 -467 -249 -236 -156 -450 -351 -619 -564 -55 -69 -162 -215 -171 -233 0 -1 -43 9 -95 23 -128 33 -337 71 -435 79 -73 7 -82 5 -99 -14 -12 -13 -16 -28 -13 -43 10 -39 155 -205 296 -339 l132 -127 -24 -49 c-115 -226 -259 -665 -321 -978 -49 -246 -69 -634 -46 -886 57 -632 310 -1183 731 -1596 126 -124 209 -191 354 -288 704 -468 1613 -562 2514 -259 l133 45 77 -73 c169 -163 343 -251 555 -279 335 -44 677 158 783 462 43 124 42 272 -3 428 -7 22 -3 21 47 -16 78 -58 136 -90 230 -125 144 -53 329 -51 464 5 209 87 374 285 435 521 27 107 27 280 1 391 -71 293 -280 542 -557 665 l-82 36 36 60 c95 159 183 391 221 579 88 437 11 921 -224 1400 -138 282 -284 485 -520 721 -685 687 -1705 1023 -2670 878 -60 -9 -158 -28 -218 -43 -124 -31 -107 -38 -182 79 -76 120 -112 160 -144 160 -16 0 -35 -7 -42 -17z m373 -633 c85 -140 228 -374 318 -520 230 -374 431 -709 580 -965 152 -263 410 -721 410 -728 0 -3 -46 25 -102 63 -213 141 -691 426 -939 559 -89 47 -98 55 -111 94 -241 695 -349 1098 -413 1527 -25 173 -47 418 -38 433 5 9 70 -92 295 -463z m1048 365 c414 -55 831 -198 1178 -403 134 -79 317 -208 412 -290 36 -31 68 -58 72 -61 4 -4 -31 -53 -78 -111 -149 -184 -354 -512 -354 -567 0 -37 36 -53 120 -53 41 0 85 -3 98 -6 20 -6 21 -9 9 -23 -18 -22 -110 -168 -274 -434 -74 -122 -137 -223 -138 -225 -2 -2 -23 11 -49 28 -66 45 -190 100 -225 100 -49 0 -64 -24 -56 -89 6 -56 31 -212 41 -263 6 -28 5 -28 -40 -22 -59 8 -92 -1 -112 -31 -13 -20 -14 -34 -5 -92 6 -37 14 -78 17 -90 10 -35 -14 -29 -58 14 l-38 37 25 26 c16 17 23 33 19 43 -9 24 -27 21 -53 -7 -15 -16 -29 -22 -43 -18 -22 5 -42 -16 -28 -33 5 -6 -1 -21 -15 -37 l-24 -28 -52 98 c-242 451 -548 976 -954 1637 -336 549 -505 825 -505 829 0 13 306 70 465 86 133 13 500 5 645 -15z m-1415 -260 c4 -38 15 -116 24 -171 l18 -101 -79 -6 c-214 -17 -401 -142 -493 -331 l-44 -90 -41 3 c-34 2 -41 -1 -51 -23 -10 -20 -9 -30 4 -49 14 -22 90 -57 123 -57 6 0 30 -19 53 -41 46 -47 48 -39 -23 -117 l-30 -32 -37 36 c-58 56 -84 23 -30 -37 l30 -32 -22 -28 c-12 -15 -25 -28 -29 -28 -3 -1 -43 13 -88 30 -78 30 -80 32 -64 50 15 16 18 17 39 3 20 -13 24 -13 35 1 11 13 10 19 -5 35 -18 20 -18 21 13 53 18 18 32 38 32 45 0 22 -34 12 -65 -18 l-31 -30 -29 30 c-30 31 -60 39 -68 18 -2 -7 10 -29 29 -48 l33 -35 -23 -28 -22 -27 -82 27 c-78 25 -81 28 -65 45 9 10 22 18 30 18 7 0 13 8 13 18 0 10 18 35 40 55 22 19 40 43 40 51 0 27 -34 18 -76 -19 l-39 -35 -69 69 -69 70 71 84 c170 199 390 388 624 535 75 47 312 167 367 187 44 15 46 12 56 -80z m75 -437 c35 -181 200 -778 245 -883 12 -31 12 -35 -10 -55 l-22 -21 -51 53 -51 53 35 35 c65 68 29 99 -39 33 l-38 -38 -44 48 c-25 26 -48 47 -53 47 -4 0 -24 -16 -45 -36 l-37 -36 -69 64 -69 63 29 30 c33 35 37 53 13 62 -10 4 -35 -13 -74 -52 -58 -57 -59 -58 -84 -42 -13 9 -42 37 -62 62 -39 46 -74 59 -74 27 0 -10 27 -44 60 -77 46 -45 57 -62 48 -72 -17 -21 7 -40 50 -39 30 1 37 5 38 21 3 59 14 58 85 -12 l69 -67 -24 -24 -24 -25 -129 56 c-110 47 -220 93 -311 128 l-24 9 24 19 c14 12 27 16 33 10 14 -14 42 -11 49 6 3 8 -1 21 -9 29 -12 12 -7 21 36 65 l51 50 18 -21 c10 -13 23 -19 33 -15 22 8 22 35 0 59 -15 17 -15 20 6 42 13 14 20 29 16 35 -11 18 -43 12 -60 -11 l-16 -23 -44 46 c-43 45 -44 48 -34 85 58 215 259 371 480 373 l66 1 13 -62z m3093 -163 c-3 -8 -9 -15 -14 -15 -10 0 -12 24 -3 33 11 11 24 -3 17 -18z m-67 -57 c-22 -31 -20 -58 3 -58 10 0 21 7 25 15 3 8 14 15 25 15 11 0 26 10 32 23 6 12 13 23 14 25 24 28 280 -289 403 -500 45 -77 49 -88 37 -105 -8 -10 -33 -62 -56 -116 l-41 -98 -53 50 c-55 53 -97 71 -124 54 -13 -8 -69 -95 -151 -233 -6 -11 -26 2 -92 65 -46 44 -109 98 -140 119 l-58 39 41 74 c63 114 48 139 -88 149 -43 3 -84 7 -91 10 -15 5 -4 29 76 161 l56 93 38 -37 c36 -35 39 -36 55 -20 16 16 15 19 -20 55 -20 21 -37 41 -37 46 0 4 12 23 26 42 l26 34 35 -30 c38 -34 51 -37 60 -14 3 9 -7 31 -26 55 l-32 39 27 35 c29 38 55 49 30 13z m-4177 -182 l63 -64 -22 -25 -22 -25 -72 19 c-103 29 -106 30 -106 38 0 12 80 121 88 121 4 0 36 -29 71 -64z m-617 -56 c253 -38 721 -181 1137 -347 593 -236 1052 -471 1861 -956 533 -319 544 -327 820 -572 355 -316 521 -431 737 -508 120 -44 218 -57 413 -57 98 0 214 -5 256 -11 311 -43 562 -227 691 -506 53 -114 74 -211 74 -333 0 -195 -59 -345 -190 -483 -130 -136 -306 -203 -469 -178 -173 27 -325 112 -467 262 -79 83 -153 191 -248 360 -153 273 -253 388 -546 628 -243 200 -365 310 -477 436 -45 50 -91 98 -102 109 -13 11 -78 31 -164 52 -202 46 -318 88 -573 207 -847 394 -1818 983 -2430 1477 -127 103 -427 386 -446 423 -9 16 -7 18 23 13 18 -4 63 -11 100 -16z m1772 -361 c24 -23 32 -37 28 -55 -4 -21 -1 -24 25 -24 21 0 40 -12 71 -43 47 -48 50 -57 25 -79 -16 -14 -31 -10 -160 50 -132 62 -141 68 -127 84 9 9 22 14 30 11 19 -7 46 17 39 35 -5 13 20 52 32 52 3 0 19 -14 37 -31z m3684 -217 c118 -303 165 -534 166 -812 0 -230 -32 -409 -111 -620 -61 -162 -169 -363 -191 -355 -42 16 -222 26 -341 20 -121 -6 -134 -5 -122 9 10 12 17 13 37 4 34 -16 54 3 35 34 -11 17 -10 23 2 35 13 13 18 11 38 -16 23 -31 52 -40 65 -20 3 6 -9 26 -27 45 l-33 34 27 27 27 27 39 -38 40 -39 -25 -29 c-39 -47 -10 -66 40 -27 l27 21 20 -26 c21 -27 53 -34 65 -15 3 6 -7 25 -24 42 -28 29 -29 34 -16 51 8 11 14 24 14 28 0 18 -31 20 -49 4 -18 -16 -21 -15 -57 29 -63 78 -66 78 -150 -6 -70 -69 -74 -72 -92 -56 -41 37 -72 6 -35 -35 13 -14 14 -21 5 -30 -9 -9 -26 1 -73 47 l-60 60 55 52 c56 52 71 83 40 83 -9 0 -55 -36 -101 -81 l-85 -81 -35 33 c-60 58 -76 85 -62 107 13 20 6 52 -10 52 -5 0 -17 -7 -26 -16 -15 -16 -20 -13 -66 32 -27 26 -49 52 -49 56 0 16 27 7 50 -17 39 -42 90 -28 90 24 0 19 -19 44 -70 93 l-70 67 38 7 c20 4 54 15 76 26 l39 20 -5 82 c-11 162 -101 364 -219 491 -34 35 -59 68 -56 72 40 70 313 512 322 521 17 18 99 -39 229 -161 112 -104 137 -115 173 -74 11 12 43 60 71 107 80 133 68 127 132 70 103 -93 129 -84 190 68 25 61 48 108 52 106 3 -2 29 -62 56 -132z m-5142 39 c582 -452 1417 -968 2149 -1328 117 -57 156 -81 178 -110 34 -45 34 -53 1 -53 -44 0 -144 -30 -206 -61 -72 -36 -128 -91 -165 -161 -25 -48 -28 -63 -29 -161 l0 -108 -153 -153 -154 -154 -46 21 c-72 33 -207 31 -284 -5 -32 -15 -71 -37 -88 -48 l-29 -22 -65 60 c-72 66 -177 123 -275 149 -98 26 -282 24 -385 -5 -219 -63 -376 -209 -392 -367 -8 -72 9 -112 50 -121 26 -5 34 -2 52 20 11 15 32 41 47 59 l27 32 30 -29 c18 -17 36 -26 45 -23 23 9 20 27 -11 59 l-27 28 22 23 c12 13 22 29 22 35 0 24 -31 25 -56 1 l-24 -23 -21 21 -21 20 58 51 c53 48 178 112 217 112 18 0 41 -26 33 -39 -12 -18 6 -43 27 -37 10 2 28 0 38 -7 24 -15 45 4 33 30 -4 10 -8 27 -8 38 -1 16 -7 20 -33 19 -42 -2 -43 12 -2 20 55 11 106 7 119 -9 7 -9 26 -25 42 -36 23 -17 31 -19 44 -8 8 7 13 18 10 26 -8 21 35 16 109 -12 117 -44 205 -121 251 -219 54 -115 11 -266 -75 -266 -11 0 -28 -12 -38 -26 -13 -21 -14 -30 -5 -45 11 -17 -18 -51 -295 -333 l-308 -314 -40 31 c-22 18 -88 79 -146 138 -386 386 -616 881 -685 1475 -13 108 -15 195 -11 389 8 374 53 623 182 1010 63 190 182 485 195 485 4 0 47 -31 96 -69z m1734 15 c0 -1 11 -34 25 -71 13 -38 23 -70 21 -73 -4 -3 -124 54 -135 64 -3 3 0 9 7 16 8 8 19 4 42 -15 17 -14 37 -24 45 -21 21 8 19 18 -9 51 -22 27 -25 53 -5 53 5 0 9 -2 9 -4z m2073 -603 c71 -60 138 -138 186 -217 40 -66 90 -206 98 -275 6 -54 10 -51 -104 -81 -91 -23 -97 -70 -19 -146 l54 -52 -47 -46 -47 -46 -74 75 c-68 68 -76 74 -84 55 -7 -16 3 -33 59 -95 60 -67 66 -78 53 -91 -14 -14 -43 5 -167 112 -2 1 6 15 16 31 40 56 37 74 -17 135 l-49 55 24 23 c26 25 34 60 13 60 -7 0 -28 -9 -47 -21 l-33 -20 -22 20 c-43 40 -73 15 -33 -27 l25 -27 -32 -37 -33 -38 -28 30 -29 30 22 23 c43 45 14 74 -37 36 l-30 -22 -30 24 c-16 13 -30 28 -30 32 -1 4 17 27 38 50 37 39 40 41 58 26 52 -46 179 -87 212 -69 50 26 26 83 -39 94 -87 14 -140 65 -140 136 l0 35 60 -3 c45 -3 68 1 86 13 30 19 30 17 -5 205 -11 63 -21 120 -21 127 0 18 123 -55 193 -114z m-464 -391 l25 -23 -26 -26 -26 -26 -24 23 c-12 12 -33 29 -46 38 l-23 15 27 28 c31 32 23 34 93 -29z m332 -278 l46 -46 -22 -24 c-12 -13 -25 -24 -28 -24 -4 0 -29 20 -56 44 l-49 44 26 26 c15 14 29 26 31 26 3 0 26 -21 52 -46z m-931 -290 c85 -29 208 -64 273 -78 88 -18 126 -30 144 -48 42 -38 137 -170 183 -254 58 -107 228 -363 338 -509 118 -158 211 -257 395 -419 235 -206 312 -296 379 -443 160 -354 -24 -716 -415 -815 -66 -17 -101 -20 -182 -16 -349 18 -675 289 -781 648 -41 141 -46 208 -42 623 4 569 31 496 -414 1147 -70 103 -168 257 -168 264 0 3 30 -7 68 -21 37 -14 137 -50 222 -79z m1318 46 l44 -49 -39 -41 -38 -40 -62 41 c-50 33 -60 44 -50 54 8 8 18 10 28 4 21 -11 42 12 33 35 -7 18 12 47 30 45 6 -1 31 -23 54 -49z m-1628 -90 c0 -6 16 -34 35 -63 l35 -51 -35 -36 c-19 -20 -35 -41 -35 -48 0 -7 26 -38 58 -68 35 -34 52 -57 45 -60 -7 -3 -13 -17 -13 -30 0 -19 5 -24 24 -24 14 0 28 5 31 11 5 7 16 3 31 -12 13 -12 30 -19 38 -16 18 7 21 23 6 32 -5 3 -10 11 -10 18 0 6 12 -2 27 -18 31 -33 41 -98 19 -128 -13 -16 -18 -15 -82 15 -118 55 -279 51 -417 -9 l-58 -26 -25 24 c-34 32 -62 87 -70 141 -5 35 -4 41 7 31 18 -18 48 -16 56 3 4 11 -8 29 -37 55 l-44 39 17 35 c9 19 20 35 25 35 4 0 23 -11 42 -25 40 -29 48 -31 57 -9 3 9 -7 28 -28 50 l-34 35 24 20 c26 22 60 25 62 7 1 -7 0 -25 -1 -40 -2 -36 21 -37 67 -2 40 30 46 69 9 62 -13 -3 -31 1 -40 7 -14 11 -13 14 13 25 17 6 63 15 103 20 40 4 79 8 86 9 6 0 12 -4 12 -9z m1770 -55 c51 -52 53 -56 37 -72 -16 -16 -21 -15 -88 17 -39 19 -73 38 -75 42 -5 7 55 67 66 68 3 0 30 -25 60 -55z m228 -143 c-18 -3 -133 24 -147 35 -3 2 11 19 29 38 l34 35 54 -52 c48 -48 51 -53 30 -56z m-1864 -12 c20 -28 36 -55 36 -60 0 -21 -26 -9 -67 32 -40 39 -42 43 -26 60 9 10 17 18 19 18 1 0 18 -23 38 -50z m-555 -323 c36 -49 78 -77 114 -77 14 0 61 14 104 32 141 57 321 49 383 -17 45 -48 121 -23 137 45 9 40 14 43 30 20 13 -19 12 -23 -16 -55 -47 -54 -20 -92 29 -40 29 31 32 31 52 -3 17 -29 17 -29 -25 -69 -23 -22 -48 -39 -54 -36 -7 3 -13 0 -13 -6 0 -19 -2 -26 -11 -42 -12 -23 15 -46 34 -31 10 9 25 0 63 -39 l49 -50 -57 -55 c-45 -44 -56 -59 -49 -72 6 -10 43 -46 83 -82 l74 -65 -4 -230 c-7 -337 16 -472 113 -673 l55 -113 -45 -19 c-125 -54 -447 -134 -670 -167 -172 -25 -613 -25 -775 0 -270 42 -524 120 -755 231 -125 60 -331 182 -354 209 -8 10 4 28 52 75 63 62 63 63 82 42 20 -22 50 -26 61 -9 3 6 -7 24 -22 40 l-28 29 37 37 37 37 28 -27 c53 -51 85 -25 38 30 l-25 29 22 25 c12 14 32 33 45 44 22 18 23 18 46 -4 46 -43 86 -10 42 34 -14 14 -26 29 -26 33 0 4 22 30 49 56 47 47 50 48 72 32 37 -26 69 15 34 44 -14 12 -13 16 6 36 25 27 46 25 120 -12 56 -28 114 -90 141 -152 26 -59 34 -159 19 -214 -30 -108 -134 -190 -233 -187 -56 3 -68 -5 -68 -40 0 -41 21 -53 90 -53 49 0 75 7 125 31 258 127 260 513 2 686 l-49 33 383 386 c210 212 385 386 388 386 4 0 22 -19 40 -43z m1673 -125 c-4 -11 -12 -6 -33 19 -38 46 -36 56 5 23 21 -17 32 -33 28 -42z m-777 -112 c9 -28 14 -58 11 -67 -6 -13 -15 -8 -51 27 l-45 44 27 28 c14 15 30 25 34 23 4 -3 15 -28 24 -55z m-1392 7 l28 -12 -149 -148 -148 -148 4 59 c3 36 -2 80 -11 111 -15 52 -15 52 11 77 29 28 73 53 112 65 39 11 122 9 153 -4z m2276 -29 c20 -18 47 -40 61 -49 24 -16 24 -17 6 -34 -17 -18 -19 -17 -51 21 -39 45 -69 94 -59 94 3 0 23 -15 43 -32z m-3604 -88 c3 -6 -3 -22 -14 -36 -21 -27 -26 -19 -15 24 7 23 19 29 29 12z m3790 -20 c32 -33 27 -54 -6 -24 -25 22 -43 54 -31 54 4 0 21 -13 37 -30z m-1040 -208 c-3 -3 -26 16 -52 42 l-46 47 49 50 49 50 3 -92 c1 -50 0 -94 -3 -97z m1000 152 c15 -23 13 -44 -4 -44 -12 0 -52 60 -46 70 8 14 32 2 50 -26z m129 -56 l25 -33 -26 -27 -27 -28 -33 32 -33 32 27 28 c15 15 30 28 34 28 4 0 19 -15 33 -32z m105 -155 c17 -29 27 -53 23 -53 -11 1 -45 23 -85 55 l-36 29 21 23 c26 28 31 24 77 -54z"/>
    <path d="M4024 6356 c-10 -25 3 -31 92 -44 140 -19 286 -82 398 -171 41 -33 59 -35 64 -8 4 19 -75 83 -161 131 -85 48 -229 94 -315 102 -62 6 -72 5 -78 -10z"/>
    <path d="M4024 6179 c-12 -20 12 -29 99 -39 112 -13 225 -54 315 -114 66 -44 102 -53 102 -27 0 35 -191 142 -306 171 -84 22 -199 27 -210 9z"/>
    <path d="M4157 5963 c-4 -3 -7 -14 -7 -24 0 -13 15 -20 67 -29 37 -6 103 -25 146 -42 66 -26 80 -29 88 -17 5 8 9 17 9 20 0 12 -118 59 -196 79 -84 22 -97 23 -107 13z"/>
    <path d="M4173 4136 c-96 -45 -143 -146 -108 -234 10 -23 28 -51 41 -61 21 -16 22 -20 9 -31 -43 -35 7 -99 94 -120 98 -23 219 29 260 112 28 58 29 165 2 223 -54 117 -182 165 -298 111z m160 -40 c37 -16 82 -61 91 -93 l7 -21 -38 20 c-74 38 -168 3 -168 -63 0 -26 6 -36 23 -44 32 -14 23 -39 -15 -43 -46 -5 -102 25 -120 63 -53 111 97 234 220 181z m75 -161 c46 -54 18 -141 -61 -181 -42 -23 -136 -22 -170 1 -39 25 -28 40 30 40 54 1 95 21 113 55 15 28 6 51 -30 75 l-30 20 27 13 c40 18 94 7 121 -23z"/>
    <path d="M6151 3005 c-81 -23 -168 -73 -211 -122 -153 -174 -84 -528 153 -779 157 -166 326 -235 494 -200 94 19 146 47 213 115 96 96 138 220 127 374 -12 167 -96 337 -220 451 -59 53 -167 117 -240 142 -93 33 -237 41 -316 19z m292 -114 c178 -63 334 -240 377 -430 20 -84 9 -214 -24 -283 -63 -134 -213 -210 -355 -179 -243 52 -480 362 -483 632 -2 146 64 235 205 274 70 20 204 13 280 -14z"/>
    <path d="M1636 4298 c-3 -13 -7 -32 -8 -42 -2 -15 -22 -25 -80 -43 -63 -19 -78 -27 -78 -43 0 -24 18 -25 84 -5 27 8 53 15 58 15 5 0 7 -25 3 -57 -13 -116 -7 -108 -101 -137 -53 -17 -84 -32 -84 -41 0 -25 17 -26 92 -5 40 11 73 20 74 20 8 0 -13 -67 -22 -73 -19 -11 -18 -34 2 -45 14 -8 15 -22 9 -94 l-7 -86 -83 5 c-59 4 -84 2 -90 -7 -13 -21 12 -32 92 -41 43 -4 78 -8 78 -8 0 -1 -1 -36 -3 -80 -3 -62 0 -79 12 -84 24 -9 34 14 37 83 1 36 3 68 5 71 1 3 27 2 57 -1 65 -7 77 -4 77 20 0 18 -35 30 -91 30 -15 0 -31 5 -35 11 -3 6 -3 52 1 103 l7 93 81 23 c45 13 90 27 100 32 18 9 23 33 8 42 -7 5 -78 -13 -162 -39 l-22 -7 7 103 c4 57 10 122 14 144 7 39 8 40 80 63 46 15 72 28 72 38 0 23 -24 26 -84 11 l-56 -15 0 34 c0 27 -4 34 -20 34 -12 0 -21 -8 -24 -22z"/>
    <path d="M1871 2815 c-31 -27 -39 -49 -21 -60 26 -16 85 54 63 76 -7 7 -20 2 -42 -16z"/>
    <path d="M1757 2793 c-12 -12 -8 -20 30 -57 41 -39 60 -45 70 -20 12 32 -77 101 -100 77z"/>
    <path d="M4948 2199 c-108 -25 -219 -112 -259 -204 -28 -62 -37 -184 -20 -264 18 -82 92 -227 152 -296 290 -336 770 -355 926 -38 26 53 28 67 27 168 0 126 -16 179 -85 285 -140 217 -389 362 -619 359 -47 -1 -102 -5 -122 -10z m317 -123 c189 -77 345 -234 400 -405 27 -82 17 -196 -21 -258 -60 -96 -156 -143 -294 -143 -150 0 -281 60 -411 190 -129 127 -186 255 -177 394 7 107 51 178 138 221 60 31 82 34 190 32 88 -3 116 -8 175 -31z"/>
  </g>
</svg>